<svg xmlns="http://www.w3.org/2000/svg" width="1758" height="1772" viewBox="0 0 1758 1772" version="1.1">
	<path d="M 864.436 75.750 C 814.994 116.577, 668.219 238.417, 524 358.351 C 505.575 373.673, 481.752 394.375, 471.060 404.355 C 460.368 414.335, 449.572 424.379, 447.069 426.675 C 444.565 428.971, 442.738 431.070, 443.008 431.339 C 444.098 432.423, 887.569 597.144, 1015 643.798 C 1167.364 699.580, 1260.155 735.116, 1318.847 760.163 C 1327.839 764, 1335.821 766.899, 1336.587 766.605 C 1337.352 766.311, 1372.971 737.093, 1415.739 701.676 C 1538.855 599.723, 1583.369 563.036, 1583.635 563.302 C 1584.139 563.805, 1632.115 857.911, 1666.087 1068.750 C 1677.275 1138.188, 1686.676 1195, 1686.978 1195 C 1687.985 1195, 1697.945 1166.186, 1704.533 1144.216 C 1722.762 1083.416, 1734.232 1021.611, 1739.186 957.500 C 1740.956 934.599, 1740.958 850.920, 1739.190 830 C 1734.764 777.649, 1727.974 734.668, 1716.914 689 C 1687.772 568.663, 1633.977 457.434, 1557.105 358.575 C 1534.382 329.352, 1509.403 301.508, 1479.869 272.479 C 1408.491 202.322, 1324.390 144.741, 1231.588 102.490 L 1213.675 94.335 1077.088 207.864 C 980.092 288.484, 933.303 328.051, 915.672 344.363 C 896.630 361.980, 891.194 367.529, 892.348 368.175 C 895.287 369.820, 1318.222 527.081, 1358.024 541.329 C 1403.673 557.669, 1433.481 568.610, 1435.630 569.813 C 1436.693 570.408, 1423.814 581.811, 1387.354 612.562 C 1360.005 635.628, 1336.805 655.093, 1335.800 655.817 C 1334.203 656.967, 1322.402 652.865, 1242.735 623.473 C 1048.064 551.650, 671.092 412.654, 663.274 409.815 L 655.047 406.828 670.274 394.107 C 715.354 356.443, 887.416 213.981, 1041 87.156 C 1063.275 68.762, 1082.070 53.192, 1082.766 52.554 C 1085.334 50.206, 1022.654 37.786, 982 32.588 C 967.403 30.721, 928.735 27, 923.939 27 C 923.682 27, 896.906 48.938, 864.436 75.750 M 705 39.957 C 640.957 52.924, 589.322 68.925, 530 94.184 C 448.506 128.885, 369.799 178.410, 300 238.908 C 269.764 265.115, 226.344 310.409, 196.380 347 C 151.773 401.471, 109.756 470.168, 79.414 538.237 C 16.671 678.993, -7.455 832.198, 8.956 985.662 C 10.981 1004.595, 15.363 1035.715, 16.103 1036.415 C 16.321 1036.622, 41.925 1045.575, 73 1056.311 C 104.075 1067.048, 168.425 1089.327, 216 1105.821 C 275.238 1126.359, 313.475 1139.011, 337.322 1145.965 C 356.475 1151.549, 372.471 1155.979, 372.871 1155.809 C 373.270 1155.639, 368.946 1131.200, 363.261 1101.500 C 357.577 1071.800, 338.305 970.775, 320.434 877 C 302.564 783.225, 282.523 679.345, 275.900 646.155 C 269.276 612.965, 264.048 585.618, 264.283 585.384 C 264.614 585.053, 352.592 614.479, 385.630 625.970 L 391.760 628.103 392.870 633.801 C 414.564 745.145, 527.837 1337.496, 527.500 1337.834 C 527.235 1338.098, 419.870 1301.088, 288.911 1255.589 C 157.952 1210.089, 50.648 1173.018, 50.458 1173.209 C 49.942 1173.725, 62.861 1208.357, 69.904 1225.334 C 79.157 1247.639, 91.171 1273.588, 100.616 1291.671 L 109.062 1307.842 117.781 1310.806 C 122.577 1312.437, 174.650 1330.508, 233.500 1350.966 C 292.350 1371.423, 396.075 1407.231, 464 1430.539 C 531.925 1453.847, 593.800 1475.238, 601.500 1478.074 C 614.408 1482.828, 670.851 1499.580, 671.428 1498.829 C 671.935 1498.169, 587.753 1057.551, 574.596 992 C 560.359 921.066, 555.385 895.297, 539.081 808 C 526.260 739.347, 513.711 669.291, 504.979 617.619 C 501.179 595.134, 497.942 576.628, 497.785 576.495 C 497.476 576.232, 426.559 549.914, 292.524 500.322 C 245.788 483.030, 207.397 468.731, 207.212 468.546 C 207.028 468.361, 254.267 428.909, 312.188 380.875 C 370.110 332.842, 486.350 236.445, 570.500 166.660 C 654.650 96.876, 724.388 38.929, 725.472 37.890 C 727.435 36.009, 727.435 36, 725.472 36.105 C 724.388 36.163, 715.175 37.897, 705 39.957 M 623.317 625.604 C 623.617 626.647, 624.330 629.975, 624.902 633 C 625.474 636.025, 632.012 669.775, 639.432 708 C 646.851 746.225, 663.984 835.325, 677.507 906 C 729.059 1175.445, 744.095 1253.567, 744.786 1255.576 C 745.414 1257.402, 755.950 1248.964, 832.500 1185.326 C 880.350 1145.547, 990.666 1053.938, 1077.647 981.751 C 1231.120 854.379, 1235.716 850.466, 1233.147 849.352 C 1231.691 848.721, 1174.250 827.415, 1105.500 802.006 C 1036.750 776.597, 900.850 726.316, 803.500 690.272 C 706.150 654.228, 625.661 624.505, 624.636 624.222 C 623.182 623.820, 622.892 624.124, 623.317 625.604 M 1364 893.191 C 954.760 1223.687, 792.091 1356.072, 770.262 1376.395 C 769.285 1377.304, 770.503 1385.218, 776.055 1414.023 C 808.843 1584.140, 826.967 1679.367, 826.621 1679.713 C 826.202 1680.131, 783.511 1665.329, 450.500 1549.302 C 347.100 1513.275, 254.280 1480.936, 244.234 1477.436 C 229.010 1472.133, 226.142 1471.397, 227.009 1473.016 C 227.580 1474.085, 238.725 1485.836, 251.774 1499.130 C 304.016 1552.354, 354.407 1592.879, 416 1631.203 C 510.917 1690.262, 618.344 1730.755, 729.596 1749.408 C 779.944 1757.850, 820.918 1761.243, 872.500 1761.243 C 986.463 1761.243, 1092.706 1740.585, 1199 1697.758 C 1269.226 1669.463, 1335.841 1631.679, 1396.500 1585.737 C 1412.974 1573.259, 1415.457 1571.024, 1415.173 1568.923 C 1413.755 1558.399, 1357.825 1273.955, 1354.037 1258 C 1345.958 1223.970, 1340.582 1203, 1339.938 1203 C 1339.603 1203, 1332.167 1209.202, 1323.414 1216.782 C 1314.661 1224.361, 1236.625 1291.737, 1150 1366.505 C 1063.375 1441.273, 971.654 1520.838, 946.175 1543.315 C 920.696 1565.793, 899.731 1584.030, 899.585 1583.842 C 899.439 1583.654, 893.399 1553.811, 886.163 1517.525 C 873.689 1454.971, 873.097 1451.464, 874.753 1449.914 C 875.714 1449.014, 962.675 1373.604, 1068 1282.334 C 1173.325 1191.065, 1295.498 1085.191, 1339.495 1047.059 C 1418.477 978.607, 1419.500 977.765, 1420.252 980.614 C 1420.670 982.201, 1441.949 1093.975, 1467.538 1229 C 1493.126 1364.025, 1514.393 1475.315, 1514.798 1476.310 C 1515.404 1477.803, 1517.119 1476.310, 1524.569 1467.810 C 1537.917 1452.579, 1555.390 1431.175, 1566.047 1417 C 1581.339 1396.661, 1597 1373.726, 1597 1371.672 C 1597 1369.445, 1560.573 1148.374, 1532.463 980 C 1518.880 898.638, 1510.613 852.083, 1505.055 825.646 C 1500.678 804.826, 1496.963 787.430, 1496.799 786.989 C 1496.634 786.548, 1436.875 834.339, 1364 893.191" stroke="none" fill="black" fill-rule="evenodd"/>
</svg>