<svg width="29" height="28" viewBox="0 0 29 28" fill="none" xmlns="http://www.w3.org/2000/svg">
<path d="M19.5507 1.08679L15.3986 4.53798C15.0665 4.80039 14.7908 5.08606 14.3457 5.4913L21.2348 8.05561C21.5669 8.18183 22.1848 8.38778 23.158 8.74984L21.4972 10.1549L10.5524 6.11577C12.8775 4.18257 15.1861 2.28258 17.4647 0.392565C16.6162 0.181942 15.75 0.0507246 14.8771 0.000610352C12.635 1.84413 10.4095 3.71089 8.17406 5.56105C7.84189 5.82346 7.56619 6.11244 7.12109 6.51436L14.0102 9.07868C14.3424 9.20158 14.9137 9.41084 15.8238 9.74301C16.2556 9.89912 17.3019 10.2844 18.5409 10.7395C19.9559 11.2809 20.8993 11.6596 21.5304 11.9287L25.5164 8.63025C26.0744 12.0615 26.6325 15.4596 27.1772 18.851C28.4332 15.4781 28.3424 11.7511 26.9235 8.44344C25.5047 5.13575 22.8669 2.50131 19.5573 1.08679H19.5507Z" fill="#57BA5E"/>
<path d="M19.9143 13.2638L10.0391 9.60999C10.7034 13.0114 11.3411 16.3994 12.0022 19.8307L19.9143 13.2638Z" fill="#57BA5E"/>
<path d="M10.8207 23.721C10.472 21.8875 9.92057 18.9877 9.4489 16.4998C9.37914 16.1344 9.25291 15.5299 9.06026 14.5566C8.92739 13.8723 8.76463 13.0187 8.53212 11.7565C8.28631 10.4278 8.12356 9.49109 8.02391 8.85333L3.32709 7.11279L11.7375 0.137329C8.47359 0.686206 5.50964 2.37364 3.37165 4.90019C1.23366 7.42674 0.0598785 10.629 0.0585938 13.9388C0.0598408 14.7179 0.125388 15.4956 0.25457 16.2639L4.65907 17.7886C5.04438 17.9248 5.44299 18.0244 6.02095 18.1971C5.66886 16.3636 5.12079 13.4638 4.64579 10.9759C4.57604 10.6138 4.44649 9.97937 4.24719 8.98288L6.31326 9.68375C7.03406 13.4472 7.7615 17.2339 8.50887 21.1335L0.80264 18.4529C1.05805 19.206 1.37697 19.9361 1.75596 20.6352C4.32027 21.5321 6.89455 22.4123 9.46218 23.2925C9.84749 23.452 10.2461 23.555 10.8207 23.721Z" fill="#57BA5E"/>
<path d="M24.1163 12.2291C17.5859 17.4906 13.002 21.1976 12.3908 21.7589L13.3275 26.6384L3.625 23.2603C6.00696 25.9355 9.32485 27.5944 12.8942 27.8948C16.4635 28.1952 20.012 27.1141 22.8075 24.8746C22.513 23.3578 22.2185 21.8375 21.924 20.314C21.8442 19.9121 21.7346 19.5168 21.5918 18.9322L16.028 23.7386C15.749 23.9811 15.274 24.403 14.4934 25.0905L14.0649 22.9514L22.874 15.3116L24.4086 23.3899C24.8937 22.8549 25.3378 22.2842 25.7372 21.6825C25.3087 19.0618 24.8669 16.4443 24.4385 13.8235C24.3621 13.3651 24.2558 12.9234 24.1163 12.2291Z" fill="#57BA5E"/>
</svg>
